# File created by Blade
# Date/Time:  Wed Jan 21 17:34:04 2015
# Frame Rate: 120.000 fps
#------------------------------------------------------
:FULLY-SPECIFIED
:DEGREES
1474
root 19.878962 35.996104 -18.462701 -183.949622 -0.391318 -177.222110
Spine 7.597499 0.610541 0.269660
Head 4.642801 -0.286625 4.069890
LeftShoulder 0.289575 -20.709727 -4.004714
LeftArm 1.967165 54.288141 -74.085974
LeftForeArm 19.841826 -0.000000 9.750947
LeftHand 3.630640 -0.000000 -9.540697
LeftHandThumb1 -26.253704 0.000000 33.147579
RightShoulder -6.103061 -10.691517 6.979562
RightArm 30.797990 -24.834398 52.750226
RightForeArm -41.047484 0.000000 42.209245
RightHand -0.705824 -0.000000 7.995822
RightHandThumb1 -24.326973 -0.000000 -32.862282
LeftUpLeg 2.540118 7.334782 2.752195
LeftLeg 5.327448 -0.000000 -0.000000
LeftFoot -25.131655 25.316871 -12.538899
LeftToeBase 16.558218 -0.000000 -0.000000
RightUpLeg -5.014907 -10.885040 -3.494075
RightLeg 22.410465 -0.000000 -0.000000
RightFoot -25.991897 -15.514953 21.981949
RightToeBase 9.778409 -0.000000 -0.000000
1475
root 19.860516 35.989131 -18.502722 -184.058657 -0.533041 -177.173570
Spine 7.411790 0.589342 0.347236
Head 4.623974 -0.555839 4.223679
LeftShoulder 0.135148 -20.813077 -3.728649
LeftArm 2.434851 52.920538 -72.349868
LeftForeArm 20.164919 -0.000000 9.346477
LeftHand 3.560866 -0.000000 -9.045573
LeftHandThumb1 -26.253704 0.000000 33.147579
RightShoulder -6.258439 -10.675706 7.101060
RightArm 30.661283 -24.078340 51.960905
RightForeArm -41.566072 0.000000 40.295469
RightHand -0.562729 -0.000000 7.778087
RightHandThumb1 -24.326973 -0.000000 -32.862282
LeftUpLeg 2.895736 7.466843 2.825045
LeftLeg 4.836332 -0.000000 -0.000000
LeftFoot -24.078257 25.437507 -12.097316
LeftToeBase 16.760352 -0.000000 -0.000000
RightUpLeg -4.287729 -11.217652 -3.496976
RightLeg 21.265543 -0.000000 -0.000000
RightFoot -26.197991 -15.411598 21.898011
RightToeBase 10.035225 -0.000000 -0.000000
1476
root 19.843720 35.978876 -18.542995 -184.144795 -0.688212 -177.134634
Spine 7.198328 0.623293 0.421008
Head 4.614672 -0.805130 4.336002
LeftShoulder -0.086789 -20.826360 -3.459561
LeftArm 3.170216 51.760869 -70.403515
LeftForeArm 20.035465 -0.000000 8.935966
LeftHand 3.328940 -0.000000 -8.326644
LeftHandThumb1 -26.253704 0.000000 33.147579
RightShoulder -6.474076 -10.646235 7.209126
RightArm 30.516574 -23.289459 51.185864
RightForeArm -41.963752 -0.000000 38.313143
RightHand -0.488495 -0.000000 7.535394
RightHandThumb1 -24.326973 -0.000000 -32.862282
LeftUpLeg 3.216793 7.610000 2.890387
LeftLeg 4.373890 -0.000000 -0.000000
LeftFoot -23.218674 25.482169 -11.724655
LeftToeBase 17.032834 -0.000000 -0.000000
RightUpLeg -3.553915 -11.563955 -3.513656
RightLeg 20.031068 -0.000000 -0.000000
RightFoot -26.323736 -15.258702 22.064579
RightToeBase 10.320361 -0.000000 -0.000000
1477
root 19.838623 35.963413 -18.581068 -184.112808 -0.820687 -177.157054
Spine 6.818894 0.704041 0.367764
Head 4.670048 -1.143381 4.501442
LeftShoulder -0.303847 -20.882318 -3.165926
LeftArm 3.797707 50.575679 -68.436877
LeftForeArm 19.849738 -0.000000 8.557216
LeftHand 2.978374 0.000000 -7.608118
LeftHandThumb1 -26.253704 0.000000 33.147579
RightShoulder -6.731396 -10.753775 7.337125
RightArm 30.443669 -22.361434 50.466297
RightForeArm -42.059880 -0.000000 36.257543
RightHand -0.481549 -0.000000 7.672717
RightHandThumb1 -24.326973 -0.000000 -32.862282
LeftUpLeg 3.400798 7.758337 2.901351
LeftLeg 3.962400 -0.000000 -0.000000
LeftFoot -22.395716 25.538263 -11.329639
LeftToeBase 17.661400 -0.000000 -0.000000
RightUpLeg -2.892418 -11.968366 -3.578687
RightLeg 18.680971 -0.000000 -0.000000
RightFoot -26.236996 -15.107683 21.795051
RightToeBase 10.802057 -0.000000 -0.000000
1478
root 19.826718 35.947180 -18.628811 -184.120748 -0.976229 -177.190418
Spine 6.466442 0.763695 0.336647
Head 4.755684 -1.434880 4.635810
LeftShoulder -0.538489 -20.955084 -2.926657
LeftArm 4.462247 49.124075 -66.408271
LeftForeArm 19.534044 0.000000 8.081031
LeftHand 2.856210 -0.000000 -7.049596
LeftHandThumb1 -26.253704 0.000000 33.147579
RightShoulder -6.992271 -10.929084 7.438727
RightArm 30.449062 -21.482220 49.652762
RightForeArm -42.166608 -0.000000 34.099571
RightHand -0.598726 0.000000 7.479552
RightHandThumb1 -24.326973 -0.000000 -32.862282
LeftUpLeg 3.624902 7.987924 2.905403
LeftLeg 3.547396 -0.000000 -0.000000
LeftFoot -21.536094 25.445271 -10.882299
LeftToeBase 18.703601 -0.000000 -0.000000
RightUpLeg -2.190073 -12.190739 -3.644289
RightLeg 17.341374 -0.000000 -0.000000
RightFoot -26.159293 -15.125393 21.944551
RightToeBase 11.138827 -0.000000 -0.000000
1479
root 19.820293 35.929321 -18.672596 -184.120713 -1.034377 -177.273784
Spine 6.125194 0.913218 0.220379
Head 4.830113 -1.688305 4.781963
LeftShoulder -0.722106 -21.153355 -2.694490
LeftArm 4.900936 47.542414 -64.491715
LeftForeArm 19.147903 -0.000000 7.648785
LeftHand 2.690245 -0.000000 -6.621190
LeftHandThumb1 -26.253704 0.000000 33.147579
RightShoulder -7.152957 -10.963415 7.534627
RightArm 30.193279 -20.474556 48.979809
RightForeArm -41.816520 -0.000000 32.031270
RightHand -0.769786 -0.000000 7.519481
RightHandThumb1 -24.326973 -0.000000 -32.862282
LeftUpLeg 3.852246 8.250287 2.864290
LeftLeg 3.107099 -0.000000 -0.000000
LeftFoot -20.857125 25.431413 -10.430804
LeftToeBase 20.198285 -0.000000 -0.000000
RightUpLeg -1.525331 -12.221463 -3.730569
RightLeg 16.020397 -0.000000 -0.000000
RightFoot -25.829912 -15.196128 22.016585
RightToeBase 11.514725 -0.000000 -0.000000
1480
root 19.817680 35.909956 -18.719478 -184.070002 -1.084188 -177.419606
Spine 5.691892 1.107067 0.013162
Head 4.973304 -2.004310 4.963180
LeftShoulder -0.922163 -21.257012 -2.463462
LeftArm 5.496910 46.027566 -62.403668
LeftForeArm 18.584856 0.000000 7.181455
LeftHand 2.544676 0.000000 -6.171934
LeftHandThumb1 -26.253704 0.000000 33.147579
RightShoulder -7.353518 -10.967833 7.631349
RightArm 29.910521 -19.449919 48.331683
RightForeArm -41.279385 -0.000000 29.845051
RightHand -0.703739 -0.000000 7.586040
RightHandThumb1 -24.326973 -0.000000 -32.862282
LeftUpLeg 4.051870 8.529622 2.766938
LeftLeg 2.671164 -0.000000 -0.000000
LeftFoot -20.323084 25.278751 -10.178594
LeftToeBase 21.562070 -0.000000 -0.000000
RightUpLeg -0.935972 -12.384988 -3.878665
RightLeg 14.755357 -0.000000 -0.000000
RightFoot -25.247316 -15.259859 21.978766
RightToeBase 11.970846 -0.000000 -0.000000
1481
root 19.812596 35.889449 -18.764291 -183.972115 -1.091137 -177.612072
Spine 5.202196 1.320360 -0.232489
Head 5.151851 -2.238775 5.090122
LeftShoulder -1.045845 -21.566551 -2.267482
LeftArm 5.683584 44.415626 -60.551631
LeftForeArm 18.043636 -0.000000 6.824728
LeftHand 2.357002 -0.000000 -5.844041
LeftHandThumb1 -26.253704 0.000000 33.147579
RightShoulder -7.555746 -11.102100 7.698579
RightArm 29.732236 -18.326705 47.681133
RightForeArm -40.433917 -0.000000 27.639640
RightHand -0.778486 -0.000000 7.684737
RightHandThumb1 -24.326973 -0.000000 -32.862282
LeftUpLeg 4.226459 8.743276 2.605635
LeftLeg 2.246502 -0.000000 -0.000000
LeftFoot -19.946010 25.146201 -10.062200
LeftToeBase 22.645960 -0.000000 -0.000000
RightUpLeg -0.418774 -12.435521 -4.060858
RightLeg 13.547932 -0.000000 -0.000000
RightFoot -24.588580 -15.274888 22.094579
RightToeBase 12.391336 -0.000000 -0.000000
1482
root 19.815082 35.868474 -18.814306 -183.875681 -1.121630 -177.809306
Spine 4.690097 1.521694 -0.512891
Head 5.382121 -2.494055 5.245277
LeftShoulder -1.229158 -21.771170 -2.030181
LeftArm 6.098740 42.931880 -58.545173
LeftForeArm 17.218460 -0.000000 6.441151
LeftHand 2.122808 -0.000000 -5.404222
LeftHandThumb1 -26.253704 0.000000 33.147579
RightShoulder -7.763660 -11.211012 7.752901
RightArm 29.444659 -17.132989 47.119970
RightForeArm -39.665446 0.000000 25.520981
RightHand -0.818465 -0.000000 7.909915
RightHandThumb1 -24.326973 -0.000000 -32.862282
LeftUpLeg 4.432341 8.862589 2.447028
LeftLeg 1.814119 -0.000000 -0.000000
LeftFoot -19.747982 25.017276 -9.917830
LeftToeBase 23.194218 -0.000000 -0.000000
RightUpLeg 0.147897 -12.409290 -4.229317
RightLeg 12.296138 -0.000000 -0.000000
RightFoot -23.810939 -15.321471 21.907490
RightToeBase 12.523504 -0.000000 -0.000000
1483
root 19.820029 35.848160 -18.865121 -183.728206 -1.076521 -178.053768
Spine 4.100179 1.819025 -0.860540
Head 5.617533 -2.725035 5.414820
LeftShoulder -1.399003 -21.898504 -1.783032
LeftArm 6.621865 41.407704 -56.472259
LeftForeArm 16.215415 -0.000000 6.021506
LeftHand 1.841722 -0.000000 -4.960410
LeftHandThumb1 -26.253704 0.000000 33.147579
RightShoulder -7.987597 -11.222074 7.785522
RightArm 29.039360 -15.961510 46.602357
RightForeArm -38.830391 -0.000000 23.428924
RightHand -0.703533 -0.000000 8.155598
RightHandThumb1 -24.326973 -0.000000 -32.862282
LeftUpLeg 4.647482 8.913242 2.227653
LeftLeg 1.314364 -0.000000 -0.000000
LeftFoot -19.573117 24.932845 -9.889174
LeftToeBase 23.383501 -0.000000 -0.000000
RightUpLeg 0.621613 -12.198059 -4.412769
RightLeg 11.138661 -0.000000 -0.000000
RightFoot -23.023713 -15.349430 21.602623
RightToeBase 12.566158 -0.000000 -0.000000
1484
root 19.829150 35.826264 -18.915802 -183.584157 -1.039763 -178.309715
Spine 3.538893 2.080194 -1.228027
Head 5.843747 -2.956726 5.550130
LeftShoulder -1.529939 -22.303630 -1.516304
LeftArm 6.731429 39.955902 -54.671892
LeftForeArm 15.456266 -0.000000 5.688590
LeftHand 1.691321 -0.000000 -4.558671
LeftHandThumb1 -26.253704 0.000000 33.147579
RightShoulder -8.204487 -11.131764 7.750279
RightArm 28.543984 -14.841480 46.153978
RightForeArm -37.750594 0.000000 21.417497
RightHand -0.745312 -0.000000 8.086810
RightHandThumb1 -24.326973 -0.000000 -32.862282
LeftUpLeg 4.850398 9.018375 2.006799
LeftLeg 0.840867 -0.000000 -0.000000
LeftFoot -19.413478 24.800707 -9.874436
LeftToeBase 23.611873 -0.000000 -0.000000
RightUpLeg 1.050069 -12.068352 -4.609059
RightLeg 10.116638 -0.000000 -0.000000
RightFoot -22.170855 -15.267468 21.188940
RightToeBase 12.828624 -0.000000 -0.000000
1485
root 19.837561 35.804150 -18.967152 -183.348278 -0.953606 -178.626147
Spine 2.836762 2.397641 -1.667210
Head 6.106392 -3.150722 5.680612
LeftShoulder -1.703351 -22.501588 -1.257884
LeftArm 7.116715 38.784485 -52.608990
LeftForeArm 14.301160 -0.000000 5.458087
LeftHand 1.421691 -0.000000 -4.173232
LeftHandThumb1 -26.253704 0.000000 33.147579
RightShoulder -8.431291 -11.060112 7.695438
RightArm 27.949026 -13.605533 45.755055
RightForeArm -37.114676 0.000000 19.633334
RightHand -0.615173 -0.000000 8.430511
RightHandThumb1 -24.326973 -0.000000 -32.862282
LeftUpLeg 4.977294 9.135338 1.715567
LeftLeg 0.346571 -0.000000 -0.000000
LeftFoot -19.226063 24.669038 -9.942290
LeftToeBase 23.947991 -0.000000 -0.000000
RightUpLeg 1.334648 -11.814664 -4.838825
RightLeg 9.192023 -0.000000 -0.000000
RightFoot -21.559735 -15.315733 20.755046
RightToeBase 13.256233 -0.000000 -0.000000
